<svg id="svg" version="1.1" xmlns="http://www.w3.org/2000/svg" xmlns:xlink="http://www.w3.org/1999/xlink" width="400" height="400" viewBox="0, 0, 400,400"><g id="svgg"><path id="path0" d="M198.276 92.950 C 173.274 95.344,161.109 124.324,176.962 143.726 C 192.712 163.001,224.169 156.267,230.845 132.190 C 236.570 111.549,219.450 90.922,198.276 92.950 M148.000 193.523 L 148.000 209.903 173.286 209.952 L 198.571 210.000 198.619 255.896 C 198.646 281.246,198.741 301.865,198.832 301.955 C 199.058 302.182,232.337 302.132,232.763 301.904 C 233.775 301.362,233.715 305.379,233.712 239.091 C 233.710 205.491,233.657 177.807,233.594 177.571 L 233.479 177.143 190.740 177.143 L 148.000 177.143 148.000 193.523 " stroke="none" fill="#ebebeb" fill-rule="evenodd"></path><path id="path1" d="M0.000 200.000 L 0.000 400.000 200.000 400.000 L 400.000 400.000 400.000 200.000 L 400.000 0.000 200.000 0.000 L 0.000 0.000 0.000 200.000 M204.386 92.962 C 226.016 95.650,238.341 118.338,228.748 137.810 C 219.076 157.442,192.031 161.018,177.601 144.571 C 158.884 123.238,176.402 89.485,204.386 92.962 M233.461 177.169 C 233.895 177.530,233.831 300.275,233.396 301.161 C 233.221 301.518,232.985 301.872,232.872 301.949 C 232.759 302.026,225.397 302.091,216.511 302.092 C 206.062 302.094,200.230 302.163,199.998 302.287 C 199.523 302.541,198.734 302.181,198.590 301.643 C 198.530 301.421,198.480 280.731,198.479 255.667 L 198.476 210.095 173.143 210.095 L 147.810 210.095 147.810 193.651 C 147.810 184.606,147.867 177.148,147.938 177.078 C 148.172 176.844,233.178 176.935,233.461 177.169 " stroke="none" fill="#141c1c" fill-rule="evenodd"></path><path id="path2" d="M222.762 101.905 C 223.171 102.324,223.549 102.667,223.601 102.667 C 223.654 102.667,223.362 102.324,222.952 101.905 C 222.543 101.486,222.166 101.143,222.113 101.143 C 222.061 101.143,222.353 101.486,222.762 101.905 M169.782 123.905 C 169.781 124.848,169.814 125.257,169.853 124.815 C 169.893 124.373,169.894 123.602,169.855 123.101 C 169.815 122.600,169.782 122.962,169.782 123.905 M147.897 177.190 C 147.847 177.321,147.829 184.757,147.856 193.714 L 147.905 210.000 173.190 210.048 L 198.475 210.097 198.524 246.525 L 198.573 282.952 198.572 246.476 L 198.571 210.000 173.286 209.952 L 148.000 209.903 148.000 193.524 L 148.000 177.144 189.667 177.095 L 231.333 177.047 189.661 177.000 C 156.463 176.962,147.970 177.001,147.897 177.190 M232.336 177.087 C 232.572 177.133,232.915 177.131,233.097 177.083 C 233.280 177.036,233.086 176.998,232.667 177.000 C 232.248 177.003,232.099 177.042,232.336 177.087 " stroke="none" fill="#848484" fill-rule="evenodd"></path><path id="path3" d="" stroke="none" fill="#747c7a" fill-rule="evenodd"></path><path id="path4" d="M178.857 146.000 C 179.213 146.367,179.546 146.667,179.599 146.667 C 179.651 146.667,179.403 146.367,179.048 146.000 C 178.692 145.633,178.359 145.333,178.306 145.333 C 178.254 145.333,178.502 145.633,178.857 146.000 M198.564 292.381 C 198.564 297.462,198.589 299.540,198.619 297.000 C 198.649 294.460,198.649 290.302,198.619 287.762 C 198.589 285.221,198.564 287.300,198.564 292.381 " stroke="none" fill="#6a6c6c" fill-rule="evenodd"></path></g></svg>