<svg width="315" height="332" viewBox="0 0 315 332" fill="none"><path d="M65.3 5.5C57.7 7.6 52.4 10.5 46.8 15.8C35.5 26.4 33.1 35 32.1 69.6C31.4 92.7 31.2 95 29.1 99.3C27.8 101.9 25.8 104.6 24.7 105.2C23.5 105.8 18.5 106.6 13.5 106.9C8.49999 107.2 4.59999 107.8 4.79999 108.2C4.89999 108.7 4.99999 116.9 4.99999 126.5V144L9.79999 144.1C17.7 144.2 23.9 145.6 26.4 147.9C30.4 151.7 31.2 156.3 32 182C32.5 198.3 33.3 208.8 34.4 213.3C39.5 234.8 55.2 247 78.1 247H87V236.1V225.3L78.7 224.8C71.9 224.5 69.4 223.9 65.7 221.7C56.6 216.4 55.3 211.1 54 176.9C52.9 145.6 51.2 139.8 40.5 130.3L35 125.4L39.4 122.3C44.3 118.8 48.4 112.6 51.3 104.1C52.8 99.6 53.4 94 54 74.8C55.1 44.2 56 38.9 60.9 33.7C65.2 29 68.9 27.6 78 27L86.5 26.5L86.8 15.2L87.1 4L78.8 4.1C74.2 4.1 68.1 4.8 65.3 5.5Z" fill="black"></path><path d="M229 15.5V27H237C248.8 27 256 31.4 259 40.4C260.5 45.1 261.6 59.2 261.9 77.5C262.3 102.9 266.4 115.2 277.2 122.6C281.1 125.3 282 127 279.7 127C277.9 127 269.6 135.8 267.5 139.9C263.6 147.7 262.9 152.4 262 177C260.7 211.3 259.3 216.4 250.3 221.7C246.6 223.9 244.1 224.5 237.3 224.8L229 225.3V236.1V247H237.9C256.3 247 270.4 239 277.9 224.3C281.9 216.4 283.1 207.7 284 182C284.5 168.5 285.3 155.8 285.9 153.8C287.9 147.4 291.6 145.3 302 144.4L311 143.7V125.5V107.2L302.3 106.8C292 106.3 289.8 105.2 286.8 99C284.8 95 284.6 92.3 283.9 70C282.9 36.1 281 28.5 271.5 18.2C262.5 8.5 251.5 4 236.8 4H229V15.5Z" fill="black" class="fill-accent"></path><path d="M81.0035 77.8544C76.9231 80.9285 75.8831 83.3736 75.4419 91.1611L75.0403 98.2498L103.495 99.8619L131.949 101.474L130.608 125.136C129.358 147.201 129.45 149.109 131.072 152.306C133.967 157.778 137.61 158.886 154.783 159.859L169.859 160.713L170.04 152.21C170.093 144.2 169.933 143.49 167.102 140.425C164.847 137.793 163.095 136.893 159.124 136.267L154.061 135.479L155.633 107.724L157.212 79.8685L120.57 77.7925C83.9291 75.7165 83.8293 75.7109 81.0035 77.8544Z" fill="black"></path><path d="M183.127 98.3044L187.487 108.946L213.86 98.1416L240.232 87.3371L237.162 79.8418C234.167 72.5315 233.96 72.2918 229.656 70.4891L225.221 68.6319L201.994 78.1474L178.768 87.6629L183.127 98.3044Z" fill="black"></path><path d="M144.1 169.6C124.2 174.9 108.5 190.7 103.5 210.5C101.3 219.1 101.3 294.7 103.5 298.9C105.5 302.9 110.6 305 118.4 305H124.9L125.2 260.7L125.5 216.5L128.1 210.9C138 189.8 164.8 184.8 181 201C183.3 203.3 186.4 207.7 187.9 210.9L190.5 216.5L190.8 260.7L191.1 305H197.6C205.6 305 210.4 303.1 212.4 299.1C214.7 294.7 214.8 219.4 212.5 210.5C207.4 190.6 191.4 174.6 171.5 169.5C164.1 167.6 151.2 167.7 144.1 169.6Z" fill="black"></path><path d="M146 272C146 323.6 146.1 324.9 151.1 328.4C154.1 330.5 161.9 330.5 164.9 328.4C169.9 324.9 170 323.6 170 272V224H158H146V272Z" fill="black" class="fill-accent"></path></svg>